Coordinates
version=1
nRows=29
nColumns=24
inDegrees=yes

Units are S.I. units (second, meters, Newtons, ...)
If the header above contains a line with 'inDegrees', this indicates whether rotational values are in degrees (yes) or radians (no).

endheader
time	pelvis_tilt	pelvis_list	pelvis_rotation	pelvis_tx	pelvis_ty	pelvis_tz	hip_flexion_r	hip_adduction_r	hip_rotation_r	knee_angle_r	ankle_angle_r	subtalar_angle_r	mtp_angle_r	hip_flexion_l	hip_adduction_l	hip_rotation_l	knee_angle_l	ankle_angle_l	subtalar_angle_l	mtp_angle_l	lumbar_extension	lumbar_bending	lumbar_rotation
      2.00000000	      7.57745159	      0.78637700	      3.80352853	      0.60833174	      1.01571003	      0.01244177	     15.90941690	     -1.54400840	     -5.61651055	    -22.23016139	     -0.74558879	      0.00000123	      0.00000000	    -15.30964585	      0.31586543	      2.16550481	    -41.58400326	      1.26479547	      0.00001900	      0.00000000	    -21.79605943	      3.12460854	     -8.67005384
      2.01700000	      7.24641142	      0.18575726	      3.75462150	      0.60875705	      1.01678805	      0.01570193	     15.37536079	     -0.67947380	     -5.76644041	    -22.83590035	      0.20654934	      0.00000130	      0.00000000	    -11.25874463	     -1.23792983	     -0.18078027	    -48.36369273	     -3.69426720	      0.00002009	      0.00000000	    -21.44446321	      3.78740651	     -7.90911922
      2.03300000	      7.02938260	     -0.54391140	      4.03370825	      0.60955104	      1.01858077	      0.01905758	     14.34273631	      0.33780326	     -6.23377886	    -22.79149366	      1.23699995	      0.00000137	      0.00000000	     -7.50142362	     -3.30650010	     -2.12370703	    -54.16049100	     -8.13696992	      0.00001992	      0.00000000	    -21.00854355	      4.46850067	     -7.50315876
      2.05000000	      6.94914787	     -1.21103854	      3.93573872	      0.60930011	      1.02090073	      0.02267279	     13.04362744	      1.40293298	     -6.32462158	    -22.30274071	      2.10099398	      0.00000136	      0.00000000	     -4.10637051	     -5.19358952	     -3.81786566	    -59.10681034	    -10.74094203	      0.00001828	      0.00000000	    -20.96638266	      4.97644297	     -6.64581804
      2.06700000	      7.12939814	     -1.70477363	      3.97922946	      0.60900125	      1.02392111	      0.02611757	     11.38196082	      2.29632086	     -6.39848162	    -21.68957691	      2.97393290	      0.00000118	      0.00000000	     -1.10875375	     -6.70211179	     -4.70194892	    -63.36340335	    -11.09070915	      0.00001647	      0.00000000	    -21.10226528	      5.20047067	     -6.06177896
      2.08300000	      7.09634041	     -1.86285492	      3.73315572	      0.60818141	      1.02714714	      0.02898043	      9.79721494	      2.80398346	     -6.10239661	    -20.72447661	      3.60486050	      0.00000129	      0.00000000	      1.86405356	     -7.43192448	     -5.32911024	    -66.72564959	     -9.57456413	      0.00001456	      0.00000000	    -21.21219366	      5.09899450	     -5.09734283
      2.10000000	      7.14272214	     -1.92204449	      3.52906568	      0.60782409	      1.03071116	      0.03174139	      7.93995444	      3.20012549	     -5.81345955	    -19.46129649	      4.08597655	      0.00000143	      0.00000000	      4.55101257	     -7.73811238	     -5.48951241	    -69.15618904	     -7.21216001	      0.00001301	      0.00000000	    -21.25727109	      4.81704688	     -4.46558033
      2.11700000	      7.37330202	     -1.81429006	      3.08564342	      0.60686138	      1.03456654	      0.03473485	      5.70519611	      3.44626530	     -5.23417332	    -17.73565579	      4.27894832	      0.00000148	      0.00000000	      6.84332351	     -7.77428696	     -5.84711737	    -70.61491242	     -5.05799987	      0.00001232	      0.00000000	    -21.45427341	      4.28966754	     -3.44124753
      2.13300000	      7.37047108	     -1.68608882	      2.71351435	      0.60565771	      1.03765924	      0.03730271	      3.79708192	      3.58894247	     -4.72215964	    -16.14473641	      4.49227604	      0.00000159	      0.00000000	      9.27017423	     -7.49492699	     -5.82878062	    -71.24976088	     -3.33880180	      0.00001193	      0.00000000	    -21.55912059	      3.75917042	     -2.74930330
      2.15000000	      7.32387959	     -1.53802255	      2.29224630	      0.60446966	      1.04024295	      0.03950739	      1.95326210	      3.66027603	     -4.13960452	    -14.57599206	      4.70322325	      0.00000155	      0.00000000	     11.52678824	     -7.07998611	     -5.82140506	    -71.03247590	     -2.13909600	      0.00001199	      0.00000000	    -21.46107589	      3.25566748	     -2.12795269
      2.16700000	      7.20118910	     -1.37686007	      1.67670664	      0.60240337	      1.04213713	      0.04173595	      0.35366387	      3.66565699	     -3.36344258	    -13.20240887	      4.89608693	      0.00000154	      0.00000000	     13.68916955	     -6.66287399	     -6.05583869	    -70.06964196	     -1.30224985	      0.00001231	      0.00000000	    -21.45735295	      2.71762518	     -1.21495843
      2.18300000	      7.29117318	     -1.11491718	      1.27772393	      0.60082191	      1.04397278	      0.04328057	     -1.44403560	      3.51225551	     -2.84904516	    -11.97812198	      5.19031005	      0.00000171	      0.00000000	     15.34438572	     -6.01293704	     -6.07895413	    -68.24073246	     -0.61251506	      0.00001229	      0.00000000	    -21.62663724	      2.16710855	     -0.78109553
      2.20000000	      7.01934786	     -1.11806460	      0.81198105	      0.59835155	      1.04432671	      0.04492373	     -2.63525497	      3.61146482	     -2.28561742	    -11.04053623	      5.57456147	      0.00000167	      0.00000000	     17.32249661	     -5.69868333	     -6.12282931	    -65.92486650	      0.00655389	      0.00001219	      0.00000000	    -21.50345959	      1.89162595	     -0.22236485
      2.21700000	      7.08026503	     -0.94521392	      0.39286216	      0.59682039	      1.04498207	      0.04624944	     -4.34786050	      3.49735072	     -1.76539239	     -9.91019326	      5.97615933	      0.00000167	      0.00000000	     18.46672044	     -5.25111578	     -6.29442749	    -62.60891819	      0.48765407	      0.00001173	      0.00000000	    -21.60164549	      1.41515453	      0.17410495
      2.23300000	      6.95838834	     -0.94017615	      0.12957046	      0.59450719	      1.04466311	      0.04743712	     -5.74919282	      3.55974070	     -1.39091508	     -8.92936143	      6.43862721	      0.00000161	      0.00000000	     19.64169583	     -5.04517313	     -6.41065726	    -58.65705301	      0.76691673	      0.00001093	      0.00000000	    -21.64417249	      1.13975419	      0.49028605
      2.25000000	      6.80869899	     -1.16757501	      0.00081869	      0.59272008	      1.04371693	      0.04847156	     -7.13646389	      3.87523500	     -1.10215256	     -8.00581373	      6.93575494	      0.00000149	      0.00000000	     20.52927033	     -5.12574646	     -6.49416369	    -54.03638398	      0.93386196	      0.00000967	      0.00000000	    -21.55557186	      1.19439379	      0.77304213
      2.26700000	      6.86169878	     -1.31524425	     -0.28282816	      0.59087316	      1.04266504	      0.04919841	     -8.66651819	      4.04252779	     -0.63963498	     -7.25367950	      7.53806820	      0.00000139	      0.00000000	     20.81410181	     -5.24179605	     -7.07152989	    -48.68926129	      0.84859337	      0.00000825	      0.00000000	    -21.74473279	      1.12031134	      1.11027400
      2.28300000	      6.59817241	     -1.65655017	     -0.54172592	      0.58884176	      1.04050164	      0.04999762	     -9.71279823	      4.41289410	     -0.21729563	     -6.79549091	      8.24933285	      0.00000141	      0.00000000	     21.21002190	     -5.56502156	     -7.74358035	    -42.89067552	      0.57405278	      0.00000678	      0.00000000	    -21.55869649	      1.28589161	      1.17208430
      2.30000000	      6.60317373	     -2.03446233	     -0.61105698	      0.58751300	      1.03833293	      0.05042329	    -11.15945006	      4.82714235	      0.05000321	     -6.21021887	      8.90180260	      0.00000134	      0.00000000	     21.06009121	     -5.78934470	     -8.32922290	    -36.71122702	      0.13638881	      0.00000560	      0.00000000	    -21.72624311	      1.50531412	      1.34711085
      2.31700000	      6.44688787	     -2.36234784	     -1.37765371	      0.58686097	      1.03570354	      0.05073892	    -12.59544771	      4.95935556	      1.08861360	     -5.35982332	      9.44562069	      0.00000120	      0.00000000	     20.66630203	     -6.02125518	     -9.49384716	    -30.22663234	     -0.29830315	      0.00000460	      0.00000000	    -21.51115190	      1.54968998	      2.28115832
      2.33300000	      6.18231735	     -2.76524083	     -1.45035841	      0.58597856	      1.03222761	      0.05074950	    -13.75159068	      5.34019699	      1.47572469	     -4.86563309	     10.18593479	      0.00000112	      0.00000000	     20.52150478	     -6.00982598	     -9.57809607	    -23.91238541	     -0.74544857	      0.00000420	      0.00000000	    -21.22088317	      1.86727212	      2.38598564
      2.35000000	      6.11239399	     -3.18141710	     -1.76790604	      0.58527108	      1.02903606	      0.05074752	    -15.22497870	      5.62874496	      2.13331567	     -4.15652812	     10.71537128	      0.00000122	      0.00000000	     19.91592632	     -5.98559169	     -9.34979985	    -17.57703719	     -1.05886437	      0.00000399	      0.00000000	    -21.24466961	      2.11322228	      2.65589329
      2.36700000	      6.13886696	     -3.64396003	     -2.12067526	      0.58475568	      1.02575227	      0.05033343	    -16.81887138	      5.89089027	      2.90866170	     -3.45315378	     11.16771110	      0.00000117	      0.00000000	     19.22546570	     -6.02344252	     -8.58592939	    -11.87224311	     -1.07766366	      0.00000379	      0.00000000	    -21.42945470	      2.32409398	      2.74546400
      2.38300000	      6.11953401	     -3.91904718	     -2.51471389	      0.58480381	      1.02227079	      0.04980970	    -18.28091899	      5.91980249	      3.60369241	     -3.00069192	     11.72966483	      0.00000117	      0.00000000	     18.51314018	     -5.97053045	     -7.48920860	     -6.88620026	     -0.91431857	      0.00000353	      0.00000000	    -21.34585443	      2.43589690	      2.77612463
      2.40000000	      6.34119562	     -4.28714280	     -2.82254989	      0.58492480	      1.01922417	      0.04910631	    -20.05433783	      6.01432393	      4.21975548	     -2.44097506	     12.07113101	      0.00000115	      0.00000000	     17.68298280	     -6.14167188	     -6.03140485	     -3.13203404	     -0.54892680	      0.00000320	      0.00000000	    -21.60098500	      2.53801403	      3.24515330
      2.41700000	      6.70223436	     -4.36823262	     -3.18161554	      0.58577648	      1.01663402	      0.04850587	    -21.74104375	      5.79279986	      4.64156676	     -2.44472796	     12.66179977	      0.00000134	      0.00000000	     16.74075400	     -6.19500551	     -4.53369303	     -0.64569127	     -0.17460692	      0.00000323	      0.00000000	    -21.94391107	      2.31905184	      3.57161300
      2.43300000	      6.70207942	     -4.65198032	     -3.21308371	      0.58501634	      1.01344942	      0.04791353	    -22.80869417	      5.95368678	      4.83060732	     -2.71623901	     13.20720803	      0.00000140	      0.00000000	     16.88453953	     -6.51299561	     -2.55089399	     -0.29574446	      0.14272844	      0.00000328	      0.00000000	    -22.04055489	      2.29451092	      3.48530655
      2.45000000	      6.75630089	     -4.59842821	     -3.39996462	      0.58532343	      1.01145845	      0.04672515	    -23.67250625	      5.67351357	      4.98045004	     -3.55632797	     13.73383315	      0.00000172	      0.00000000	     17.06654816	     -6.38442375	     -1.32923272	     -1.28061103	     -0.08252221	      0.00000345	      0.00000000	    -22.19358606	      1.91748254	      3.54594341
      2.46700000	      6.64084969	     -4.09658165	     -3.72220372	      0.58559724	      1.01009682	      0.04502976	    -23.98134648	      4.89041947	      5.07356082	     -5.04957669	     14.33224498	      0.00000203	      0.00000000	     17.67916658	     -5.61975158	     -1.35506011	     -3.46925778	     -1.06578951	      0.00000361	      0.00000000	    -22.06057984	      1.06474450	      3.65815417
